<?xml version="1.0" encoding="UTF-8"?>
<svg width="51px" height="36px" viewBox="0 0 51 36" version="1.1" xmlns="http://www.w3.org/2000/svg" xmlns:xlink="http://www.w3.org/1999/xlink">
    <!-- Generator: Sketch 41 (35326) - http://www.bohemiancoding.com/sketch -->
    <title>Logo</title>
    <desc>Created with Sketch.</desc>
    <defs>
        <path d="M4.04337967,0 C-15.8966515,48.1292941 44.3284171,19.6386579 45.6241208,35.8167273 C62.8367228,-7.95305345 19.2548037,5.81642745 4.04337967,0 Z" id="path-1"></path>
    </defs>
    <g id="Screens" stroke="none" stroke-width="1" fill="none" fill-rule="evenodd">
        <g id="In-Atlanta" transform="translate(-25.000000, -10.000000)">
            <g id="Logo" transform="translate(25.000000, 10.000000)">
                <g id="Group-2" transform="translate(0.625000, 0.000000)">
                    <mask id="mask-2" fill="white">
                        <use xlink:href="#path-1"></use>
                    </mask>
                    <use id="Combined-Shape" fill="#152740" xlink:href="#path-1"></use>
                    <path d="M16.4036458,0.660681818 C16.4036458,0.322242626 16.5247655,0.0325225119 16.7670085,-0.208487216 C17.0092514,-0.449496944 17.300454,-0.57 17.640625,-0.57 C17.980796,-0.57 18.2719986,-0.449496944 18.5142415,-0.208487216 C18.7564845,0.0325225119 18.8776042,0.322242626 18.8776042,0.660681818 L18.8776042,13.8225 L31.2473958,13.8225 L31.2473958,7.29340909 C31.2473958,6.9549699 31.3685155,6.66524978 31.6107585,6.42424006 C31.8530014,6.18323033 32.144204,6.06272727 32.484375,6.06272727 C32.824546,6.06272727 33.1157486,6.18323033 33.3579915,6.42424006 C33.6002345,6.66524978 33.7213542,6.9549699 33.7213542,7.29340909 L33.7213542,29.4456818 C33.7213542,29.784121 33.6002345,30.0738411 33.3579915,30.3148509 C33.1157486,30.5558606 32.824546,30.6763636 32.484375,30.6763636 C32.144204,30.6763636 31.8530014,30.5558606 31.6107585,30.3148509 C31.3685155,30.0738411 31.2473958,29.784121 31.2473958,29.4456818 L31.2473958,16.2838636 L18.8776042,16.2838636 L18.8776042,22.8129545 C18.8776042,23.1513937 18.7564845,23.4411139 18.5142415,23.6821236 C18.2719986,23.9231333 17.980796,24.0436364 17.640625,24.0436364 C17.300454,24.0436364 17.0092514,23.9231333 16.7670085,23.6821236 C16.5247655,23.4411139 16.4036458,23.1513937 16.4036458,22.8129545 L16.4036458,0.660681818 Z" id="H" stroke="#FFFFFF" stroke-width="1.98981818" fill="#FFFFFF" mask="url(#mask-2)"></path>
                </g>
            </g>
        </g>
    </g>
</svg>