<?xml version="1.0" encoding="UTF-8"?>
<svg width="46px" height="32px" viewBox="0 0 46 32" version="1.1" xmlns="http://www.w3.org/2000/svg" xmlns:xlink="http://www.w3.org/1999/xlink">
    <!-- Generator: Sketch 42 (36781) - http://www.bohemiancoding.com/sketch -->
    <title>logo</title>
    <desc>Created with Sketch.</desc>
    <defs></defs>
    <g id="Page-1" stroke="none" stroke-width="1" fill="none" fill-rule="evenodd">
        <g id="Home" transform="translate(-10.000000, -8.000000)" fill="#313638">
            <g id="Header">
                <g id="Logo/V2" transform="translate(10.000000, 8.000000)">
                    <path d="M19.0192308,16 L15.9230769,16 L15.9230769,13.3333333 L19.0192308,13.3333333 L21.2307692,13.3333333 L21.2307692,10.6666667 L18.5769231,10.6666667 L18.5769231,8 L21.2307692,8 L21.2307692,5.33333333 L18.5769231,5.33333333 L18.5769231,2.66666667 L15.9230769,2.66666667 L15.9230769,0 L19.0192308,0 L29.1923077,0 L29.1923077,11.5555556 L35.3846154,11.5555556 L35.3846154,0 L46,0 L46,32 L35.3846154,32 L35.3846154,20.4444444 L29.1923077,20.4444444 L29.1923077,32 L18.5769231,32 L18.5769231,29.3333333 L15.9230769,29.3333333 L15.9230769,26.6666667 L19.0192308,26.6666667 L21.2307692,26.6666667 L21.2307692,24 L19.0192308,24 L15.9230769,24 L15.9230769,21.3333333 L18.5769231,21.3333333 L18.5769231,18.6666667 L21.2307692,18.6666667 L21.2307692,16 L19.0192308,16 Z M21.2307692,8 L21.2307692,10.6666667 L23.8846154,10.6666667 L23.8846154,8 L21.2307692,8 Z M23.8846154,13.3333333 L23.8846154,16 L26.5384615,16 L26.5384615,13.3333333 L23.8846154,13.3333333 Z M21.2307692,18.6666667 L21.2307692,21.3333333 L23.8846154,21.3333333 L23.8846154,18.6666667 L21.2307692,18.6666667 Z M23.8846154,24 L23.8846154,26.6666667 L26.5384615,26.6666667 L26.5384615,24 L23.8846154,24 Z M21.2307692,29.3333333 L21.2307692,32 L23.8846154,32 L23.8846154,29.3333333 L21.2307692,29.3333333 Z M21.2307692,0 L21.2307692,2.66666667 L23.8846154,2.66666667 L23.8846154,0 L21.2307692,0 Z M10.6153846,0 L13.2692308,0 L13.2692308,2.66666667 L10.6153846,2.66666667 L10.6153846,0 Z M5.30769231,2.66666667 L7.96153846,2.66666667 L7.96153846,5.33333333 L5.30769231,5.33333333 L5.30769231,2.66666667 Z M13.2692308,5.33333333 L15.9230769,5.33333333 L15.9230769,8 L13.2692308,8 L13.2692308,5.33333333 Z M7.96153846,8 L10.6153846,8 L10.6153846,10.6666667 L7.96153846,10.6666667 L7.96153846,8 Z M13.2692308,16 L15.9230769,16 L15.9230769,18.6666667 L13.2692308,18.6666667 L13.2692308,16 Z M7.96153846,16 L10.6153846,16 L10.6153846,18.6666667 L7.96153846,18.6666667 L7.96153846,16 Z M5.30769231,18.6666667 L7.96153846,18.6666667 L7.96153846,21.3333333 L5.30769231,21.3333333 L5.30769231,18.6666667 Z M10.6153846,21.3333333 L13.2692308,21.3333333 L13.2692308,24 L10.6153846,24 L10.6153846,21.3333333 Z M13.2692308,24 L15.9230769,24 L15.9230769,26.6666667 L13.2692308,26.6666667 L13.2692308,24 Z M10.6153846,29.3333333 L13.2692308,29.3333333 L13.2692308,32 L10.6153846,32 L10.6153846,29.3333333 Z M5.30769231,26.6666667 L7.96153846,26.6666667 L7.96153846,29.3333333 L5.30769231,29.3333333 L5.30769231,26.6666667 Z M10.6153846,13.3333333 L13.2692308,13.3333333 L13.2692308,16 L10.6153846,16 L10.6153846,13.3333333 Z M2.65384615,16 L5.30769231,16 L5.30769231,18.6666667 L2.65384615,18.6666667 L2.65384615,16 Z M5.30769231,13.3333333 L7.96153846,13.3333333 L7.96153846,16 L5.30769231,16 L5.30769231,13.3333333 Z M0,8 L2.65384615,8 L2.65384615,10.6666667 L0,10.6666667 L0,8 Z M0,21.3333333 L2.65384615,21.3333333 L2.65384615,24 L0,24 L0,21.3333333 Z" id="Combined-Shape"></path>
                </g>
            </g>
        </g>
    </g>
</svg>