<svg width="51" height="36" viewBox="0 0 51 36" xmlns="http://www.w3.org/2000/svg" xmlns:xlink="http://www.w3.org/1999/xlink"><title>Logo</title><defs><path d="M4.043 0c-19.94 48.13 40.285 19.639 41.581 35.817C62.837-7.953 19.254 5.817 4.044 0z" id="a"/></defs><g transform="translate(.625)" fill="none" fill-rule="evenodd"><mask id="b" fill="#fff"><use xlink:href="#a"/></mask><use fill="#152740" xlink:href="#a"/><path d="M16.404.66c0-.338.12-.627.363-.868.242-.241.533-.362.874-.362.34 0 .631.12.873.362.242.24.364.53.364.869v13.162h12.37v-6.53c0-.338.12-.628.363-.869.242-.24.533-.361.873-.361.34 0 .632.12.874.361s.363.531.363.87v22.152c0 .338-.12.628-.363.869a1.194 1.194 0 0 1-.874.361c-.34 0-.631-.12-.873-.361a1.182 1.182 0 0 1-.364-.87V16.285h-12.37v6.529c0 .338-.12.628-.363.87a1.194 1.194 0 0 1-.873.36c-.34 0-.632-.12-.874-.36a1.182 1.182 0 0 1-.363-.87V.661z" stroke="#FFF" stroke-width="1.99" fill="#FFF" mask="url(#b)"/></g></svg>