<svg width="46" height="32" viewBox="0 0 46 32" xmlns="http://www.w3.org/2000/svg"><title>Logo</title><path d="M19.02 16h-3.097v-2.667h5.308v-2.666h-2.654V8h2.654V5.333h-2.654V2.667h-2.654V0h13.269v11.556h6.193V0H46v32H35.385V20.444h-6.193V32H18.577v-2.667h-2.654v-2.666h5.308V24h-5.308v-2.667h2.654v-2.666h2.654V16h-2.212zm2.21-8v2.667h2.655V8H21.23zm2.655 5.333V16h2.653v-2.667h-2.653zm-2.654 5.334v2.666h2.654v-2.666H21.23zM23.885 24v2.667h2.653V24h-2.653zm-2.654 5.333V32h2.654v-2.667H21.23zM21.23 0v2.667h2.654V0H21.23zM10.615 0h2.654v2.667h-2.654V0zM5.308 2.667h2.654v2.666H5.308V2.667zm7.961 2.666h2.654V8H13.27V5.333zM7.962 8h2.653v2.667H7.962V8zm5.307 8h2.654v2.667H13.27V16zm-5.307 0h2.653v2.667H7.962V16zm-2.654 2.667h2.654v2.666H5.308v-2.666zm5.307 2.666h2.654V24h-2.654v-2.667zM13.27 24h2.654v2.667H13.27V24zm-2.654 5.333h2.654V32h-2.654v-2.667zm-5.307-2.666h2.654v2.666H5.308v-2.666zm5.307-13.334h2.654V16h-2.654v-2.667zM2.654 16h2.654v2.667H2.654V16zm2.654-2.667h2.654V16H5.308v-2.667zM0 8h2.654v2.667H0V8zm0 13.333h2.654V24H0v-2.667z" fill="#152740" fill-rule="evenodd"/></svg>